<svg id="Layer_1" data-name="Layer 1" xmlns="http://www.w3.org/2000/svg" xmlns:xlink="http://www.w3.org/1999/xlink" viewBox="0 0 74.75 71.04"><defs><style>.cls-1{fill:#fff;}.cls-2{fill-rule:evenodd;fill:url(#linear-gradient);}</style><linearGradient id="linear-gradient" x1="26.32" y1="38" x2="50.33" y2="38" gradientUnits="userSpaceOnUse"><stop offset="0" stop-color="#314ba0"/><stop offset="1" stop-color="#131643"/></linearGradient></defs><title>Facebook</title><rect class="cls-1" width="74.75" height="71.04" rx="14.04" ry="14.04"/><path class="cls-2" d="M26.32,38v-9h5.27a1.52,1.52,0,0,0,0-.24c0-1.26,0-2.46,0-3.71s0-2.29.09-3.44A12.16,12.16,0,0,1,32.9,17a8.23,8.23,0,0,1,5-4.23,13.32,13.32,0,0,1,3.23-.65c.81-.06,1.63-.12,2.46-.12H50c.27,0,.27,0,.27.27V20.8c0,.23,0,.23-.27.23-1.55,0-3.13,0-4.7,0a5.07,5.07,0,0,0-1.34.2,2,2,0,0,0-1.59,1.86c-.07.75-.07,1.53-.08,2.31,0,1.16,0,2.29,0,3.44a.78.78,0,0,0,0,.2h8c-.32,3-.64,6-.95,9H42.5c-.24,0-.24,0-.24.22V64H31.62V38.38c0-.41,0-.33-.33-.33h-5Z" transform="translate(-2.83 -3.73)"/></svg>