<svg id="Layer_1" data-name="Layer 1" xmlns="http://www.w3.org/2000/svg" viewBox="0 0 74.75 71.04"><defs><style>.cls-1{fill:#fff;}</style></defs><title>Internet</title><rect class="cls-1" width="74.75" height="71.04" rx="14.04" ry="14.04"/><path d="M57.56,54.38a23.15,23.15,0,0,0-.45-31.25h0A23.16,23.16,0,0,0,41,15.82H39.41a23.15,23.15,0,0,0-16.09,7.3h0a23.14,23.14,0,0,0-.45,31.25v0l.05,0a23.14,23.14,0,0,0,16.49,7.73l.45,0H41a23.15,23.15,0,0,0,16.5-7.75l0,0v0ZM18.63,39.8h9.6a29.53,29.53,0,0,0,1.93,9.77,29.51,29.51,0,0,0-6.49,3.3,21.49,21.49,0,0,1-5-13.08Zm5.48-15.18a29.69,29.69,0,0,0,6.32,3.11,29.56,29.56,0,0,0-2.2,10.47h-9.6a21.49,21.49,0,0,1,5.48-13.58ZM61.79,38.2H52.19A29.51,29.51,0,0,0,50,27.73a29.59,29.59,0,0,0,6.32-3.11A21.49,21.49,0,0,1,61.79,38.2ZM39.41,27.77a27.89,27.89,0,0,1-6.77-1,28,28,0,0,1,6.77-8.83Zm0,1.6V38.2H29.83a27.9,27.9,0,0,1,2.13-10,29.5,29.5,0,0,0,7.44,1.15Zm1.6,0a29.56,29.56,0,0,0,7.45-1.15,27.9,27.9,0,0,1,2.13,10H41Zm0-1.6V17.91a28,28,0,0,1,6.78,8.83,28,28,0,0,1-6.78,1Zm8.33-1.51A29.64,29.64,0,0,0,43,17.59a21.53,21.53,0,0,1,12.15,5.86,28,28,0,0,1-5.84,2.81Zm-18.25,0a27.83,27.83,0,0,1-5.84-2.81,21.53,21.53,0,0,1,12.15-5.86,29.54,29.54,0,0,0-6.31,8.67ZM29.83,39.8h9.57v8a29.51,29.51,0,0,0-7.73,1.23,27.93,27.93,0,0,1-1.85-9.26Zm9.57,9.63V60.09a28,28,0,0,1-7.1-9.53,27.94,27.94,0,0,1,7.1-1.12ZM41,60.09V49.43a27.94,27.94,0,0,1,7.1,1.12A27.92,27.92,0,0,1,41,60.09Zm0-12.25v-8h9.58a27.9,27.9,0,0,1-1.85,9.27A29.33,29.33,0,0,0,41,47.83Zm11.18-8h9.61a21.49,21.49,0,0,1-5,13.08,29.55,29.55,0,0,0-6.49-3.3,29.52,29.52,0,0,0,1.93-9.77ZM24.76,54.08a27.75,27.75,0,0,1,6-3,29.56,29.56,0,0,0,6.62,9.35,21.53,21.53,0,0,1-12.63-6.33ZM43,60.41a29.47,29.47,0,0,0,6.62-9.35,27.86,27.86,0,0,1,6,3A21.55,21.55,0,0,1,43,60.41Zm0,0" transform="translate(-2.83 -3.73)"/></svg>