<svg id="Layer_1" data-name="Layer 1" xmlns="http://www.w3.org/2000/svg" viewBox="0 0 74.75 71.04"><defs><style>.cls-1{fill:#fff;}</style></defs><title>Telefono</title><rect class="cls-1" width="74.75" height="71.04" rx="14.04" ry="14.04"/><path d="M58.39,39.51H55.83A15.13,15.13,0,0,0,40.72,24.4V21.85A17.68,17.68,0,0,1,58.39,39.51ZM40.72,26.26v2.55A10.71,10.71,0,0,1,51.42,39.51H54A13.27,13.27,0,0,0,40.72,26.26Zm-.51-12a25,25,0,0,0,0,50.08,1.55,1.55,0,0,0,0-3.09,22,22,0,1,1,22-21.95c0,5.06-2.69,10.07-6.54,12.19a9.45,9.45,0,0,1-4.54,1.17,7.31,7.31,0,0,0,2.44-2.34,3.9,3.9,0,0,0,.37-.55,24.57,24.57,0,0,0,.85-3.86c.37-1.63-7.14-4.81-7.79-2.78-.23.76-.6,3.14-1.07,3.77s-1.46.3-2.11-.25c-1.72-1.46-3.62-3.61-5.3-5.3l-.14-.14L38.17,41c-1.69-1.68-3.84-3.59-5.3-5.3-.55-.65-.82-1.69-.25-2.11s3-.83,3.77-1.07c2-.65-1.15-8.17-2.78-7.79a24.67,24.67,0,0,0-3.86.85,4.14,4.14,0,0,0-.55.37c-4.29,2.72-4.84,9.33-.65,14.25q2.39,2.82,5,5.48h0l.14.14a.86.86,0,0,1,.13.14h0a47,47,0,0,0,7.31,6.52c7.22,4.81,12.75,3.47,16,1.68,5.63-3.1,8.14-9.72,8.14-14.9a25.07,25.07,0,0,0-25-25.05Zm0,0" transform="translate(-2.83 -3.73)"/></svg>