<svg id="Layer_1" data-name="Layer 1" xmlns="http://www.w3.org/2000/svg" xmlns:xlink="http://www.w3.org/1999/xlink" viewBox="0 0 74.75 71.04"><defs><style>.cls-1{fill:#fff;}.cls-2,.cls-3,.cls-4,.cls-5,.cls-6{fill-rule:evenodd;}.cls-2{fill:url(#linear-gradient);}.cls-3{fill:url(#linear-gradient-2);}.cls-4{fill:url(#linear-gradient-3);}.cls-5{fill:url(#linear-gradient-4);}.cls-6{fill:url(#linear-gradient-5);}</style><linearGradient id="linear-gradient" x1="13.87" y1="39.24" x2="66.54" y2="39.24" gradientUnits="userSpaceOnUse"><stop offset="0" stop-color="#33a6de"/><stop offset="1" stop-color="#1e88c4"/></linearGradient><linearGradient id="linear-gradient-2" x1="29.53" y1="60.67" x2="31.33" y2="60.67" xlink:href="#linear-gradient"/><linearGradient id="linear-gradient-3" x1="29.15" y1="60.67" x2="29.55" y2="60.67" xlink:href="#linear-gradient"/><linearGradient id="linear-gradient-4" x1="31.32" y1="60.67" x2="31.71" y2="60.67" xlink:href="#linear-gradient"/><linearGradient id="linear-gradient-5" x1="49.6" y1="17.84" x2="49.83" y2="17.84" xlink:href="#linear-gradient"/></defs><title>Twitter</title><rect class="cls-1" width="74.75" height="71.04" rx="14.04" ry="14.04"/><path class="cls-2" d="M66.54,22.91v0a5.31,5.31,0,0,1-1,1.45A19.34,19.34,0,0,1,63.21,27c-.53.48-1.11,1-1.69,1.38a.58.58,0,0,0-.26.5v1.53a27.33,27.33,0,0,1-.34,4.14,30.71,30.71,0,0,1-1.25,5.14,33.57,33.57,0,0,1-2.22,5.18,37.18,37.18,0,0,1-3.31,4.95,20,20,0,0,1-1.65,1.82,25.8,25.8,0,0,1-3.63,3.24,22.32,22.32,0,0,1-3,2,29,29,0,0,1-5.39,2.39A31.29,31.29,0,0,1,35,60.48c-.79.11-1.59.15-2.37.18H29a24.62,24.62,0,0,1-7.11-1.08,29.51,29.51,0,0,1-5.93-2.4c-.63-.33-1.24-.69-1.86-1.08-.21-.12-.23-.21-.13-.35a4.64,4.64,0,0,1,.72,0,14.78,14.78,0,0,0,2.78.07c.81-.07,1.61-.11,2.39-.23a22.56,22.56,0,0,0,5.6-1.7,24.91,24.91,0,0,0,4-2.36s0,0,.07-.07c-.4-.09-.78-.09-1.17-.16A11.47,11.47,0,0,1,24.63,50a10.52,10.52,0,0,1-2.72-2.21A9.9,9.9,0,0,1,20.07,45c-.13-.28-.26-.58-.37-.92s0-.45.33-.37a9.22,9.22,0,0,0,1.57.16,10.36,10.36,0,0,0,2.51-.29,7,7,0,0,1-1.39-.42c-.48-.17-.93-.44-1.37-.65a11.08,11.08,0,0,1-5.46-8.17,10.92,10.92,0,0,1,0-1.24c0-.27.15-.36.4-.21a11.09,11.09,0,0,0,3.71,1.15,2,2,0,0,0,.46,0,13.45,13.45,0,0,1-1.33-1.17,10.08,10.08,0,0,1-2-2.75A10.33,10.33,0,0,1,16,26.35a10.85,10.85,0,0,1,.51-4.66A13.21,13.21,0,0,1,17.2,20c.2-.33.33-.33.59,0,.46.53.93,1.07,1.42,1.56a25.41,25.41,0,0,0,3,2.73,30,30,0,0,0,4.12,2.78,28.93,28.93,0,0,0,5.62,2.49,34.09,34.09,0,0,0,5.46,1.22c.65.07,1.3.14,2,.18.23,0,.26,0,.23-.25a10.65,10.65,0,0,1-.15-1.15,11,11,0,0,1,0-1.84,10.38,10.38,0,0,1,.32-1.91,10.9,10.9,0,0,1,2.08-4.06,10.44,10.44,0,0,1,3.72-2.94,8.89,8.89,0,0,1,2.54-.87,8.43,8.43,0,0,1,1.17-.09.23.23,0,0,0,.11,0h.22a.49.49,0,0,0,.23,0h1.44c.32,0,.65,0,1,.07a8.73,8.73,0,0,1,2.24.62,10.72,10.72,0,0,1,3,1.87,3.91,3.91,0,0,1,.53.55.48.48,0,0,0,.44.12,23.2,23.2,0,0,0,3.91-1.24c.82-.38,1.61-.75,2.37-1.16a.22.22,0,0,1,.29,0c.09.07.06.18,0,.26a7.78,7.78,0,0,1-.92,2,9.3,9.3,0,0,1-2,2.41,6,6,0,0,1-1.42,1.11h0a18.09,18.09,0,0,0,2.43-.49,16.92,16.92,0,0,0,3-1C66.31,22.9,66.43,22.79,66.54,22.91Z" transform="translate(-2.83 -3.73)"/><path class="cls-3" d="M29.54,60.66h1.78s0,0,0,0H29.55S29.53,60.66,29.54,60.66Z" transform="translate(-2.83 -3.73)"/><path class="cls-4" d="M29.54,60.66v0h-.36c-.05,0-.05,0,0,0Z" transform="translate(-2.83 -3.73)"/><path class="cls-5" d="M31.32,60.68v0h.36c.05,0,.05,0,0,0Z" transform="translate(-2.83 -3.73)"/><path class="cls-6" d="M49.83,17.83a.26.26,0,0,1-.23,0Z" transform="translate(-2.83 -3.73)"/></svg>